<svg xmlns="http://www.w3.org/2000/svg" viewBox="0 0 96 96" fill="none">
  <defs>
    <linearGradient id="bg" x1="14" y1="12" x2="82" y2="84" gradientUnits="userSpaceOnUse">
      <stop stop-color="#7A1717"/>
      <stop offset="1" stop-color="#FF7B41"/>
    </linearGradient>
  </defs>
  <rect x="8" y="8" width="80" height="80" rx="24" fill="url(#bg)"/>
  <circle cx="48" cy="52" r="16" fill="#FFE7B0"/>
  <path d="M48 24c1 7-4 9-6 14-2 4 0 8 2 11-3 1-5 3-7 7-3 7 2 14 11 14 10 0 18-7 18-17 0-7-4-12-8-16 0 4-2 6-5 9-4-4-5-7-4-12 1-5 1-7-1-10Z" fill="#FFB25B"/>
</svg>
