<svg xmlns="http://www.w3.org/2000/svg" viewBox="0 0 96 96" fill="none">
  <defs>
    <linearGradient id="bg" x1="14" y1="12" x2="82" y2="84" gradientUnits="userSpaceOnUse">
      <stop stop-color="#0D4D62"/>
      <stop offset="1" stop-color="#9DEBFF"/>
    </linearGradient>
  </defs>
  <rect x="8" y="8" width="80" height="80" rx="24" fill="url(#bg)"/>
  <circle cx="50" cy="53" r="17" fill="#EAFDFF"/>
  <path d="M50 21v10M50 66v10M18 53h10M68 53h10M27 30l7 7M62 65l7 7M69 30l-7 7M34 65l-7 7" stroke="#EAFDFF" stroke-width="4" stroke-linecap="round"/>
  <path d="M51 36c2 4 6 5 8 9 3 6-1 13-8 13s-11-6-10-12c1-5 4-7 10-10Z" fill="#8EE4F6"/>
</svg>
