<svg xmlns="http://www.w3.org/2000/svg" viewBox="0 0 96 72" fill="none">
  <defs>
    <radialGradient id="giantGlow" cx="0" cy="0" r="1" gradientUnits="userSpaceOnUse" gradientTransform="translate(48 40) rotate(90) scale(28 37)">
      <stop stop-color="#FFF5B8" stop-opacity="0.98"/>
      <stop offset="0.58" stop-color="#FF9E4B" stop-opacity="0.76"/>
      <stop offset="1" stop-color="#B72610" stop-opacity="0"/>
    </radialGradient>
  </defs>
  <ellipse cx="48" cy="41" rx="32" ry="14" fill="url(#giantGlow)"/>
  <path d="M49 14c2 8-5 10-7 16-2 4 0 7 3 10-4 1-7 3-9 7-3 8 2 15 12 15 12 0 20-8 20-20 0-7-4-13-10-18 0 5-3 8-6 11-4-4-5-8-4-13 1-5 1-7 1-8Z" fill="#FFE7A6"/>
  <path d="M43 42c3-4 7-4 10-1 4 3 4 8 1 12-3 3-8 4-11 1-3-3-3-8 0-12Z" fill="#FFAB51"/>
</svg>
