<svg xmlns="http://www.w3.org/2000/svg" viewBox="0 0 96 96" fill="none">
  <defs>
    <linearGradient id="bg" x1="12" y1="10" x2="86" y2="88" gradientUnits="userSpaceOnUse">
      <stop stop-color="#0F4E86"/>
      <stop offset="1" stop-color="#6EC4FF"/>
    </linearGradient>
    <linearGradient id="drop" x1="34" y1="16" x2="62" y2="76" gradientUnits="userSpaceOnUse">
      <stop stop-color="#E2F7FF"/>
      <stop offset="1" stop-color="#A7E0FF"/>
    </linearGradient>
  </defs>
  <rect x="8" y="8" width="80" height="80" rx="24" fill="url(#bg)"/>
  <path d="M48 16c6 8 17 21 17 31a17 17 0 1 1-34 0c0-10 11-23 17-31Z" fill="url(#drop)"/>
  <path d="M23 64c6-2 11-3 18-3 8 0 12 2 18 3 7 1 12 1 14-1 0 7-10 17-25 17-14 0-25-10-25-16Z" fill="#EAFBFF" opacity="0.7"/>
</svg>
