<svg xmlns="http://www.w3.org/2000/svg" viewBox="0 0 96 96" fill="none">
  <defs>
    <linearGradient id="bg" x1="12" y1="12" x2="84" y2="84" gradientUnits="userSpaceOnUse">
      <stop stop-color="#5D1515"/>
      <stop offset="1" stop-color="#FF7A32"/>
    </linearGradient>
    <radialGradient id="burst" cx="0" cy="0" r="1" gradientUnits="userSpaceOnUse" gradientTransform="translate(48 48) rotate(90) scale(30)">
      <stop stop-color="#FFF3BE" stop-opacity="0.95"/>
      <stop offset="1" stop-color="#FFF3BE" stop-opacity="0"/>
    </radialGradient>
  </defs>
  <rect x="8" y="8" width="80" height="80" rx="24" fill="url(#bg)"/>
  <circle cx="48" cy="48" r="30" fill="url(#burst)"/>
  <path d="M49 14c2 10-6 13-9 20-3 6-1 10 3 14-5 1-9 4-11 9-4 10 2 21 16 21 16 0 28-11 28-27 0-10-6-18-14-24 0 7-4 11-8 15-6-5-8-11-6-18 1-7 1-10 1-10Z" fill="#FFE6A8"/>
  <path d="M43 58c4-5 9-5 13-2 5 5 5 11 1 16-3 4-10 5-14 1-4-4-4-10 0-15Z" fill="#FFB15B"/>
</svg>
